<svg xmlns="http://www.w3.org/2000/svg" height="64" viewBox="0 0 256 64" fill="none" width="256">
    <rect fill="#E60012" style="width: 100%; height: 100%;" width="256" height="64" />
    <g transform="translate(18 0)">
        <path
            d="M53.293 41.3359H50.2383L41.9599 30.4343L41.9483 41.3359H38.6953V25.0129H41.7384L50.0284 35.9141V25.0129H53.293V41.3359Z"
            fill="white" />
        <path
            d="M2.81779 42.929L4.02663 27.2132H8.0207V30.5029C8.0207 30.781 8.24614 31.0069 8.52471 31.0069H10.2263C10.5045 31.0069 10.7303 30.781 10.7303 30.5029V27.2132H18.3173V30.5029C18.3173 30.781 18.5427 31.0069 18.8213 31.0069H20.5229C20.801 31.0069 21.0265 30.781 21.0265 30.5029V27.2132H25.0205L26.2294 42.929H2.81779ZM10.7303 22.6611C10.7303 21.5836 11.6036 20.7103 12.6812 20.7103H16.366C17.4435 20.7103 18.3173 21.5836 18.3173 22.6611V24.5036H10.7303V22.6611ZM27.6261 25.7547C27.5717 25.0486 26.983 24.5036 26.2751 24.5036H21.0265V22.3903C21.0265 19.9657 19.0614 18.0007 16.6372 18.0007H12.4099C9.98577 18.0007 8.0207 19.9657 8.0207 22.3903V24.5036H2.77201C2.06415 24.5036 1.47549 25.0486 1.42151 25.7547L0.00406409 44.1798C-0.0563997 44.9667 0.565514 45.6387 1.355 45.6387H27.6926C28.4816 45.6387 29.104 44.9667 29.0431 44.1798L27.6261 25.7547Z"
            fill="white" />
        <path
            d="M60.2523 41.3359H57.2092V30.0378H60.2523V41.3359ZM60.6604 26.3422C60.6604 27.4379 59.8092 28.2775 58.7131 28.2775C57.6174 28.2775 56.7773 27.4379 56.7773 26.3422C56.7773 25.2461 57.6174 24.3832 58.7131 24.3832C59.8092 24.3832 60.6604 25.2461 60.6604 26.3422Z"
            fill="white" />
        <path
            d="M74.5937 34.142V41.3359H71.5506V35.1216C71.5506 33.489 70.7344 32.5916 69.3472 32.5916C68.0411 32.5916 66.9571 33.4428 66.9571 35.1449V41.3359H63.9141V30.0383H66.8751V31.3672C67.6801 30.1665 68.9157 29.7351 70.198 29.7351C72.7634 29.7351 74.5937 31.5188 74.5937 34.142Z"
            fill="white" />
        <path
            d="M85.7864 32.7427H81.6943V36.8697C81.6943 38.2807 82.4402 38.7934 83.3843 38.7934C84.1073 38.7934 84.8886 38.4323 85.5066 38.0592L86.626 40.438C85.6349 41.1139 84.4925 41.627 82.8829 41.627C80.0847 41.627 78.6513 40.0411 78.6513 37.1146V32.7427H76.4707V30.0378H78.6513V26.6799H81.6943V30.0378H85.7864V32.7427Z"
            fill="white" />
        <path
            d="M91.1949 34.6191H96.1965C95.9171 33.1731 95.0425 32.3569 93.7365 32.3569C92.3022 32.3569 91.4631 33.2198 91.1949 34.6191ZM99.2517 35.6681C99.2517 36.0184 99.2284 36.4378 99.1934 36.6943H91.1832C91.5097 38.3264 92.6521 39.0381 94.0863 39.0381C95.0654 39.0381 96.1266 38.6412 96.9428 37.9532L98.7269 39.9123C97.4442 41.09 95.8117 41.626 93.9114 41.626C90.4486 41.626 88.0469 39.2709 88.0469 35.7148C88.0469 32.1591 90.3786 29.7336 93.7598 29.7336C97.0128 29.7336 99.2396 32.1474 99.2517 35.6681Z"
            fill="white" />
        <path
            d="M112.228 34.142V41.3359H109.185V35.1216C109.185 33.489 108.369 32.5916 106.982 32.5916C105.676 32.5916 104.592 33.4428 104.592 35.1449V41.3359H101.549V30.0383H104.51V31.3672C105.314 30.1665 106.55 29.7351 107.833 29.7351C110.398 29.7351 112.228 31.5188 112.228 34.142Z"
            fill="white" />
        <path
            d="M117.408 35.6808C117.408 37.4061 118.539 38.7934 120.323 38.7934C122.06 38.7934 123.238 37.4645 123.238 35.6808C123.238 33.8967 122.06 32.5677 120.323 32.5677C118.539 32.5677 117.408 33.955 117.408 35.6808ZM123.086 31.2151V24.5459H126.118V41.3354H123.144V40.0877C122.41 40.9973 121.313 41.627 119.763 41.627C116.65 41.627 114.295 39.0732 114.295 35.6808C114.295 32.2879 116.65 29.7342 119.763 29.7342C121.278 29.7342 122.352 30.3289 123.086 31.2151Z"
            fill="white" />
        <path
            d="M131.23 35.6808C131.23 37.5111 132.513 38.7934 134.227 38.7934C135.941 38.7934 137.235 37.5111 137.235 35.6808C137.235 33.85 135.941 32.5677 134.227 32.5677C132.513 32.5677 131.23 33.85 131.23 35.6808ZM140.348 35.6808C140.348 39.0853 137.748 41.627 134.227 41.627C130.718 41.627 128.129 39.0853 128.129 35.6808C128.129 32.2762 130.718 29.7342 134.227 29.7342C137.748 29.7342 140.348 32.2762 140.348 35.6808Z"
            fill="white" />
        <path
            d="M150.024 34.6217H155.024C154.744 33.1762 153.87 32.3603 152.565 32.3603C151.131 32.3603 150.292 33.2232 150.024 34.6217ZM158.078 35.6707C158.078 36.0201 158.054 36.4395 158.02 36.696H150.012C150.339 38.3277 151.481 39.039 152.915 39.039C153.893 39.039 154.954 38.6425 155.77 37.9545L157.553 39.9127C156.271 41.0904 154.639 41.626 152.74 41.626C149.278 41.626 146.877 39.2718 146.877 35.7169C146.877 32.1625 149.208 29.7384 152.588 29.7384C155.84 29.7384 158.066 32.1509 158.078 35.6707Z"
            fill="white" />
        <path
            d="M171.422 29.133C170.139 28.3405 168.578 27.7462 166.795 27.7462C164.965 27.7462 163.671 28.4687 163.671 29.7044C163.671 30.9046 165.081 31.266 167.039 31.5921L167.96 31.7437C170.874 32.2218 173.158 33.4687 173.158 36.3122C173.158 39.9137 169.988 41.627 166.48 41.627C164.009 41.627 161.352 40.9048 159.604 39.4943L161.293 36.8715C162.47 37.816 164.394 38.6318 166.492 38.6318C168.298 38.6318 169.697 37.921 169.697 36.662C169.697 35.5313 168.508 35.112 166.235 34.7509L165.198 34.5877C162.319 34.1329 160.222 32.8627 160.222 29.9138C160.222 26.5106 163.252 24.739 166.724 24.739C169.009 24.739 170.909 25.2521 172.96 26.4756L171.422 29.133Z"
            fill="white" />
        <path
            d="M178.905 31.2545C179.709 30.1355 180.909 29.7394 182.145 29.7394C184.709 29.7394 186.539 31.5222 186.539 34.1446V41.3359H183.497V35.1237C183.497 33.4921 182.681 32.595 181.294 32.595C179.989 32.595 178.905 33.4454 178.905 35.147V41.3359H175.863V24.5413H178.905V31.2545Z"
            fill="white" />
        <path
            d="M191.51 35.6824C191.51 37.5123 192.792 38.7937 194.506 38.7937C196.219 38.7937 197.513 37.5123 197.513 35.6824C197.513 33.8521 196.219 32.5707 194.506 32.5707C192.792 32.5707 191.51 33.8521 191.51 35.6824ZM200.625 35.6824C200.625 39.0856 198.026 41.626 194.506 41.626C190.998 41.626 188.41 39.0856 188.41 35.6824C188.41 32.2791 190.998 29.7384 194.506 29.7384C198.026 29.7384 200.625 32.2791 200.625 35.6824Z"
            fill="white" />
        <path
            d="M205.332 35.6834C205.332 37.4662 206.509 38.7946 208.234 38.7946C210.029 38.7946 211.147 37.4079 211.147 35.6834C211.147 33.9584 210.029 32.5716 208.234 32.5716C206.509 32.5716 205.332 33.9001 205.332 35.6834ZM214.271 35.6834C214.271 39.0745 211.917 41.6269 208.805 41.6269C207.29 41.6269 206.217 41.0327 205.483 40.159V45.998H202.453V30.0425H205.425V31.2894C206.159 30.3686 207.243 29.7393 208.793 29.7393C211.917 29.7393 214.271 32.2918 214.271 35.6834Z"
            fill="white" />
        <path d="M217.197 39.078H215.371V39.4231H216.102V41.3359H216.467V39.4231H217.197V39.078Z"
            fill="white" />
        <path
            d="M219.999 39.078H219.44L218.783 40.6907L218.126 39.078H217.566V41.3359H217.931V39.4957L218.591 41.1152H218.975L219.634 39.478V41.3359H219.999V39.078Z"
            fill="white" />
    </g>
</svg>